<?xml version="1.0" encoding="UTF-8" standalone="no"?>
<!-- Created with Inkscape (http://www.inkscape.org/) -->

<svg
   xmlns:dc="http://purl.org/dc/elements/1.1/"
   xmlns:cc="http://creativecommons.org/ns#"
   xmlns:rdf="http://www.w3.org/1999/02/22-rdf-syntax-ns#"
   xmlns:svg="http://www.w3.org/2000/svg"
   xmlns="http://www.w3.org/2000/svg"
   xmlns:sodipodi="http://sodipodi.sourceforge.net/DTD/sodipodi-0.dtd"
   xmlns:inkscape="http://www.inkscape.org/namespaces/inkscape"
   width="575mm"
   height="145mm"
   viewBox="0 0 575 145"
   version="1.1"
   id="svg829"
   inkscape:version="0.92.2 (5c3e80d, 2017-08-06)"
   sodipodi:docname="drawing-1.svg">
  <defs
     id="defs823" />
  <sodipodi:namedview
     id="base"
     pagecolor="#ffffff"
     bordercolor="#666666"
     borderopacity="1.0"
     inkscape:pageopacity="0.0"
     inkscape:pageshadow="2"
     inkscape:zoom="0.45636616"
     inkscape:cx="1526.1868"
     inkscape:cy="425.19685"
     inkscape:document-units="mm"
     inkscape:current-layer="layer1"
     showgrid="false"
     inkscape:window-width="1920"
     inkscape:window-height="1013"
     inkscape:window-x="-9"
     inkscape:window-y="-9"
     inkscape:window-maximized="1"
     inkscape:measure-start="0,0"
     inkscape:measure-end="0,0" />
  <metadata
     id="metadata826">
    <rdf:RDF>
      <cc:Work
         rdf:about="">
        <dc:format>image/svg+xml</dc:format>
        <dc:type
           rdf:resource="http://purl.org/dc/dcmitype/StillImage" />
        <dc:title></dc:title>
      </cc:Work>
    </rdf:RDF>
  </metadata>
  <g
     inkscape:label="Layer 1"
     inkscape:groupmode="layer"
     id="layer1"
     transform="translate(0,-152)">
    <circle
       style="opacity:0.6;fill:#228c22;fill-opacity:0;stroke:#05abc4;stroke-width:0.66499996;stroke-linecap:round;stroke-linejoin:round;stroke-miterlimit:4;stroke-dasharray:none;stroke-opacity:0;paint-order:stroke fill markers"
       id="path1380"
       cx="106.96727"
       cy="191.54465"
       r="104.69941" />
    <g
       id="g4553"
       transform="matrix(0.56437315,0,0,0.56437315,237.80888,76.98187)">
      <a
         id="a847">
        <g
           id="g845">
          <path
             style="display:inline;fill:#74d380;stroke-width:0.32488725"
             d="m -305.42383,373.72499 c -15.68055,-1.13838 -29.7095,-4.88935 -42.90953,-11.47287 -11.24529,-5.60859 -20.29604,-12.14924 -29.21842,-21.11509 -25.75663,-25.88212 -36.97324,-62.49153 -30.19638,-98.55673 8.23422,-43.82107 42.72437,-78.68194 86.67732,-87.60898 7.64617,-1.55297 13.23299,-2.09048 21.81987,-2.09929 7.78197,-0.008 11.75012,0.30242 18.68102,1.46131 29.50708,4.93376 56.56859,22.42668 73.19616,47.31498 18.47351,27.65132 23.62942,61.10706 14.32235,92.93516 -7.27475,24.878 -23.60609,46.80457 -45.58885,61.20787 -14.59378,9.56198 -31.15732,15.47889 -48.91474,17.47358 -3.32293,0.37326 -14.94329,0.67245 -17.8688,0.46006 z"
             id="path828"
             inkscape:connector-curvature="0" />
          <path
             style="display:inline;fill:#04a9c2;stroke-width:0.32488725"
             d="m -307.04826,373.08209 c -0.62541,-0.0729 -2.5991,-0.28935 -4.38598,-0.48108 -20.23591,-2.17132 -40.05375,-10.34787 -56.20404,-23.18896 -12.77325,-10.15602 -22.78407,-22.59915 -30.06484,-37.36966 -5.60836,-11.37769 -8.79131,-21.75529 -10.61461,-34.60763 -0.82355,-5.80516 -0.82355,-22.46003 0,-28.26519 1.8233,-12.85234 5.00625,-23.22995 10.61461,-34.60763 5.91698,-12.00378 14.17106,-23.16661 23.4032,-31.6505 17.92648,-16.47356 38.36839,-25.876 63.02812,-28.99034 5.28424,-0.66736 20.19842,-0.57156 25.66609,0.16486 30.85547,4.15583 56.99389,19.48885 75.24045,44.13667 21.05278,28.43853 26.9376,66.20596 15.59532,100.08714 -13.39432,40.0109 -47.96905,68.34521 -90.51088,74.17449 -3.54748,0.48609 -19.06786,0.91235 -21.76744,0.59783 z m -0.67933,-6.59397 c 3.83075,-1.19227 7.1311,-4.01314 8.88427,-7.59358 2.42634,-4.95524 1.89662,-11.09236 -1.32515,-15.3525 -2.88629,-3.81655 -6.4673,-5.70782 -11.23615,-5.93423 -6.42798,-0.30518 -11.565,2.68269 -14.22138,8.27166 -4.71138,9.91264 2.32933,21.16838 13.26938,21.21329 1.71748,0.007 3.34796,-0.20593 4.62903,-0.60464 z m 28.72925,-11.56765 c 10.61742,-2.76548 12.80902,-16.96102 3.52821,-22.85312 -6.73878,-4.27824 -15.75342,-1.19146 -18.58635,6.36431 -0.99903,2.66454 -0.83261,6.96303 0.36795,9.50363 2.66194,5.63318 8.75592,8.53086 14.69019,6.98518 z m -53.71601,-6.40508 c 5.38145,-1.65235 8.23418,-8.09439 5.91056,-13.3473 -3.47417,-7.85394 -14.57584,-7.84145 -18.17513,0.0204 -0.7076,1.5456 -0.79072,2.0985 -0.66357,4.41408 0.16685,3.03877 0.81085,4.56369 2.74358,6.49641 2.78635,2.78636 6.27999,3.61525 10.18456,2.41637 z m -21.31457,-2.8056 c 1.94509,-0.86041 3.67478,-2.48908 4.67868,-4.40544 0.72847,-1.39059 0.86629,-2.06719 0.86629,-4.25278 0,-2.18559 -0.13782,-2.8622 -0.86629,-4.25278 -2.43074,-4.64008 -8.04963,-6.51623 -12.70058,-4.24072 -5.08634,2.48851 -6.87572,8.94935 -3.77507,13.63048 2.60609,3.93447 7.53611,5.40602 11.79697,3.52124 z m 85.81796,-18.0367 c 2.88809,-1.34487 4.46648,-3.87829 4.48413,-7.19732 0.0182,-3.41768 -2.1994,-6.41709 -5.60177,-7.57677 -3.92224,-1.33687 -8.73923,1.19849 -9.93643,5.22992 -0.61685,2.07716 -0.61533,2.63476 0.013,4.75045 1.37221,4.62073 6.56809,6.87663 11.04111,4.79372 z m -84.21742,-2.31592 c 2.56235,-0.6674 4.25843,-1.5885 6.10425,-3.31505 7.52739,-7.04099 4.32515,-19.64536 -5.67907,-22.35337 -4.45483,-1.20587 -8.95254,-0.0778 -12.34582,3.09644 -3.47088,3.24684 -4.91621,7.3357 -4.15733,11.76114 1.31614,7.67511 8.79919,12.70673 16.07797,10.81084 z m 97.90137,-2.97196 c 3.46105,-1.64238 3.67102,-6.86921 0.35711,-8.88972 -1.53792,-0.93768 -3.98794,-0.8732 -5.48542,0.14436 -2.21135,1.50264 -2.90482,4.61328 -1.49489,6.70547 1.61946,2.40311 4.18961,3.1947 6.6232,2.03989 z m -77.04745,-1.69658 c 3.33959,-1.51715 4.90851,-5.4509 3.45239,-8.65617 -2.31669,-5.09959 -9.36537,-5.38459 -11.98384,-0.48454 -0.63939,1.19653 -0.75955,1.82382 -0.66173,3.45466 0.15874,2.6466 1.22583,4.2832 3.54684,5.43981 2.01715,1.00518 3.80417,1.08312 5.64634,0.24624 z m 48.78327,-1.70104 c 4.08994,-2.52773 2.45844,-8.88178 -2.38421,-9.28551 -5.21615,-0.43487 -7.43023,6.28072 -3.04501,9.23592 1.44578,0.97431 3.89676,0.99669 5.42922,0.0496 z m 21.08768,-7.07996 c 4.24364,-1.92742 5.18268,-7.79123 1.74505,-10.89692 -1.63243,-1.4748 -2.4894,-1.80851 -4.64433,-1.80851 -2.26247,0 -4.3026,1.05215 -5.56643,2.87075 -0.87151,1.25408 -0.979,1.67015 -0.979,3.78944 0,2.1211 0.10627,2.53157 0.97466,3.7645 1.88399,2.67486 5.47395,3.64154 8.47005,2.28074 z m -110.27992,-3.13108 c 2.0704,-1.45827 2.95911,-3.37348 2.81564,-6.06781 -0.14196,-2.66584 -1.27508,-4.50702 -3.50769,-5.69956 -1.22068,-0.65202 -1.82166,-0.76177 -3.64098,-0.66489 -2.66584,0.14195 -4.50702,1.27507 -5.69957,3.50769 -0.65201,1.22067 -0.76176,1.82165 -0.66488,3.64098 0.14195,2.66584 1.27507,4.50702 3.50768,5.69956 1.22068,0.65202 1.82166,0.76177 3.64098,0.66489 1.78102,-0.0948 2.42917,-0.29225 3.54882,-1.08086 z m 52.10212,-1.53581 c 1.9436,-0.99891 3.72797,-2.79276 4.76433,-4.78966 0.6326,-1.21892 0.75772,-1.94815 0.75252,-4.38598 -0.005,-2.52682 -0.12331,-3.14743 -0.8682,-4.56904 -1.03097,-1.96759 -3.0388,-3.85925 -5.09621,-4.80136 -2.25584,-1.03297 -5.79718,-0.96717 -8.19005,0.15217 -4.5632,2.13459 -6.90079,6.90112 -5.69419,11.61093 0.90415,3.52927 3.19677,6.08342 6.532,7.27715 2.3074,0.82585 5.6425,0.61454 7.7998,-0.49421 z m 47.49711,-7.04958 c 2.17803,-1.32803 2.87164,-3.65257 1.76932,-5.92966 -0.82498,-1.70419 -2.2876,-2.64 -4.12617,-2.64 -3.56971,0 -5.8578,3.87745 -4.04378,6.85268 1.35464,2.22179 4.28397,3.00759 6.40063,1.71698 z m -89.3159,-1.16864 c 4.73785,-1.97911 5.75373,-8.22012 1.86041,-11.42932 -3.75608,-3.09608 -9.34555,-1.37853 -10.7345,3.29855 -1.58824,5.34819 3.77394,10.26123 8.87409,8.13077 z m -12.96139,-4.67491 c 3.0725,-1.56747 3.67153,-5.54569 1.20628,-8.01094 -2.46525,-2.46526 -6.44347,-1.86622 -8.01094,1.20628 -2.25895,4.4279 2.37676,9.06361 6.80466,6.80466 z m 117.28345,-2.59867 c 2.65929,-1.35667 4.20628,-4.233 3.78556,-7.03854 -0.24791,-1.65319 -1.19322,-3.12254 -2.88475,-4.48394 -1.15408,-0.92884 -1.43839,-1.00482 -3.75993,-1.00482 -2.18064,0 -2.68494,0.11481 -3.82856,0.87162 -1.61185,1.06667 -3.02464,3.69547 -3.01428,5.60869 0.0136,2.49869 1.78307,5.21379 4.05396,6.22023 1.46296,0.64837 4.20221,0.56435 5.648,-0.17324 z m -17.07436,-3.91256 c 3.25547,-1.6516 5.15393,-4.80062 5.19358,-8.61474 0.0902,-8.68002 -10.32905,-13.03116 -16.57167,-6.92042 -4.00163,3.9171 -3.80327,10.47388 0.42959,14.19979 2.02436,1.78192 3.62001,2.3016 6.78027,2.20823 2.00909,-0.0594 2.9553,-0.2575 4.16823,-0.87286 z m -93.88542,-2.95538 c 1.94582,-0.5403 3.95912,-2.75938 4.43573,-4.8891 1.1747,-5.24914 -4.06472,-9.64911 -9.02306,-7.57739 -2.57894,1.07755 -3.97387,3.26908 -3.97387,6.24325 0,2.64858 1.27891,4.66761 3.65828,5.77537 1.86944,0.87036 3.0071,0.97428 4.90292,0.44787 z m 159.19672,-3.09473 c 2.28391,-0.77821 4.88695,-3.30877 5.74698,-5.58696 1.34634,-3.56643 0.49731,-7.6522 -2.1377,-10.28722 -1.7924,-1.79239 -3.54101,-2.53441 -6.37094,-2.70348 -2.14826,-0.12835 -2.7216,-0.0392 -4.25163,0.6613 -3.49236,1.59885 -5.4568,4.42913 -5.69438,8.20421 -0.19282,3.06387 0.65,5.31047 2.7789,7.40735 2.65849,2.61851 6.43514,3.4952 9.92877,2.3048 z m -20.65059,-0.738 c 2.20906,-1.13613 3.79628,-2.78499 4.77042,-4.95566 0.79199,-1.7648 0.88048,-2.29124 0.75357,-4.48348 -0.11272,-1.94722 -0.34706,-2.85736 -1.08459,-4.21245 -3.89058,-7.14827 -14.11764,-6.8297 -17.7541,0.55304 -1.08941,2.21172 -1.06832,6.07926 0.0455,8.34279 1.05863,2.15137 3.221,4.19943 5.3053,5.02483 2.26324,0.89627 5.93958,0.77206 7.9639,-0.26907 z m -120.55513,-2.49832 c 2.84593,-1.39239 4.56839,-4.23742 4.60909,-7.61294 0.0767,-6.3643 -6.79935,-10.54141 -12.52899,-7.61117 -3.1483,1.6101 -4.66434,4.19572 -4.6532,7.93606 0.0112,3.76723 2.45016,6.83514 6.4888,8.16218 1.38044,0.4536 4.19785,0.0488 6.0843,-0.87413 z m -17.2207,-10.06547 c 6.31831,-3.14855 5.48427,-12.38079 -1.32273,-14.64172 -5.01018,-1.66411 -10.25344,2.21468 -10.27584,7.60174 -0.0247,5.94729 6.20424,9.72809 11.59857,7.03998 z m -18.26589,-4.15985 c 1.81974,-0.8492 3.86523,-2.92982 4.63374,-4.71333 0.8175,-1.89719 0.65985,-5.08348 -0.35006,-7.0752 -2.67841,-5.28229 -9.23969,-6.57977 -13.6485,-2.69898 -3.76304,3.31236 -3.99427,9.10387 -0.50391,12.62085 2.58174,2.60143 6.64661,3.3703 9.86873,1.86666 z m 167.89259,-2.27153 c 4.70188,-2.30041 7.40321,-7.55441 6.40415,-12.45583 -0.77523,-3.80327 -3.18306,-6.82736 -6.76047,-8.49073 -1.53694,-0.71463 -2.30338,-0.8573 -4.60533,-0.8573 -2.30914,0 -3.06682,0.14192 -4.62503,0.86632 -2.2654,1.05316 -4.70933,3.42685 -5.78358,5.61735 -1.13983,2.32423 -1.29014,6.42157 -0.32951,8.98219 0.70729,1.88532 2.57408,4.28879 4.26798,5.49496 3.01494,2.14682 8.01351,2.51544 11.43179,0.84304 z m -110.71244,-0.29563 c 1.92444,-0.98796 3.38113,-2.45696 4.42827,-4.46572 0.62536,-1.19964 0.76201,-1.95754 0.76147,-4.22353 -6.5e-4,-2.35993 -0.12572,-2.99779 -0.86054,-4.38598 -1.02504,-1.93647 -2.49879,-3.38942 -4.49165,-4.42828 -1.19964,-0.62536 -1.95754,-0.762 -4.22353,-0.76146 -2.36723,6.5e-4 -2.99921,0.12538 -4.42605,0.87416 -4.37365,2.29521 -6.38481,7.40563 -4.77609,12.13622 0.7414,2.18015 3.58212,5.00443 5.79082,5.75731 2.33854,0.79713 5.68567,0.58133 7.7973,-0.50272 z m 86.86772,-0.0981 c 3.93994,-1.17004 6.4139,-5.25431 5.54829,-9.15973 -1.00933,-4.55387 -5.57041,-7.36271 -9.90813,-6.10169 -3.54305,1.02999 -5.81046,4.01326 -5.81046,7.64491 0,3.84248 2.41127,6.90848 6.14882,7.81839 1.53225,0.37302 2.19814,0.33959 4.02148,-0.20188 z m 42.68275,-7.47927 c 1.82649,-1.26899 2.84273,-3.29305 2.83574,-5.64794 -0.0178,-6.00288 -7.42341,-8.7366 -11.48588,-4.23993 -2.33064,2.57973 -2.37461,6.09252 -0.10856,8.6734 2.27137,2.58696 6.03262,3.10848 8.7587,1.21447 z m -114.48759,-5.09296 c 3.67241,-1.71238 4.66798,-7.05607 1.90159,-10.20681 -3.29968,-3.75812 -9.20081,-2.88193 -11.31278,1.67971 -1.7287,3.73382 0.77035,8.51464 4.84188,9.26281 1.55496,0.28574 2.81318,0.0832 4.56931,-0.73571 z m 63.35541,-3.04395 c 2.32418,-1.15819 3.38545,-2.78971 3.5559,-5.46658 0.0997,-1.56586 -0.018,-2.30532 -0.52395,-3.29222 -1.23464,-2.40818 -3.37383,-3.70943 -6.09809,-3.70943 -1.90759,0 -3.39625,0.70607 -4.82651,2.2892 -2.37537,2.62925 -2.2684,6.36834 0.25437,8.89111 2.24857,2.24857 4.83526,2.68472 7.63828,1.28792 z m -126.86318,-2.38882 c 5.94976,-0.97436 10.49318,-5.43846 11.56788,-11.36593 1.1983,-6.60919 -2.98444,-13.35046 -9.51413,-15.33379 -3.43145,-1.04227 -6.90319,-0.76773 -10.06743,0.79613 -2.9475,1.45673 -5.0796,3.63643 -6.50946,6.65478 -0.96202,2.03077 -1.03403,2.42413 -1.02445,5.59564 0.0133,4.41015 0.73303,6.3555 3.40999,9.21718 2.20898,2.36141 4.38238,3.64384 7.22014,4.26029 2.54411,0.55267 2.60273,0.55477 4.91746,0.1757 z m 111.92867,-3.10846 c 5.73376,-3.1207 6.80014,-10.9021 2.13355,-15.56869 -5.97962,-5.97962 -16.56292,-1.52695 -16.55818,6.96647 0.002,4.25509 2.49499,7.78919 6.56241,9.30436 2.05379,0.76506 5.77749,0.43252 7.86222,-0.70214 z m 57.4615,0.64839 c 4.16495,-1.74023 5.50193,-7.17266 2.62442,-10.66358 -3.22302,-3.91008 -9.24115,-3.28301 -11.47284,1.19544 -1.78766,3.58736 -0.44689,7.49278 3.23811,9.43204 1.25576,0.66086 4.0717,0.67897 5.61031,0.0361 z m -143.03761,-7.27068 c 1.63626,-0.73433 3.44533,-2.4982 4.23419,-4.12841 0.33428,-0.6908 0.66643,-2.2173 0.73812,-3.39222 0.16596,-2.71985 -0.72451,-4.9443 -2.71297,-6.77721 -1.83926,-1.69536 -3.44743,-2.35101 -5.8331,-2.37816 -7.64095,-0.0869 -11.69338,8.74535 -6.64433,14.48137 2.6049,2.95933 6.60147,3.8177 10.21809,2.19463 z m 136.53492,-8.17683 c 7.04159,-3.41593 6.9392,-13.59516 -0.17187,-17.08713 -2.57166,-1.26284 -5.96336,-1.27422 -8.35749,-0.028 -8.07471,4.20301 -6.9574,15.57211 1.77082,18.0188 2.03935,0.57167 4.35581,0.26195 6.75854,-0.90363 z m -109.22224,-3.47068 c 1.58308,-0.80839 3.58362,-2.94362 4.28669,-4.57529 0.67213,-1.55987 0.64656,-5.05043 -0.0486,-6.63154 -0.72957,-1.65942 -2.63254,-3.70652 -4.2381,-4.55909 -1.87909,-0.99782 -5.96252,-0.99782 -7.84161,0 -1.60556,0.85257 -3.50853,2.89967 -4.2381,4.55909 -0.69514,1.58111 -0.72072,5.07167 -0.0486,6.63154 0.98061,2.27581 3.3345,4.39503 5.76873,5.19364 1.39389,0.4573 4.92558,0.11391 6.35956,-0.61835 z m 88.68666,-1.94547 c 1.96567,-1.00377 3.91623,-3.29597 4.51207,-5.30237 0.63144,-2.12629 0.63706,-2.99673 0.0325,-5.03246 -0.7444,-2.50667 -2.17765,-4.18763 -4.57811,-5.36937 -1.88404,-0.92751 -2.30529,-1.01316 -4.28417,-0.87112 -4.92325,0.3534 -8.1856,3.81767 -8.19477,8.70197 -0.007,3.71686 2.23961,7.01078 5.63797,8.26636 1.81503,0.67058 5.16693,0.47896 6.87449,-0.39301 z m -127.69528,-1.66113 c 2.65173,-1.21643 4.06109,-3.36135 4.06109,-6.18064 0,-2.02573 -0.32855,-2.89198 -1.68111,-4.43247 -4.17414,-4.75408 -11.76631,-1.91443 -11.76631,4.40089 0,4.91293 5.00199,8.22344 9.38633,6.21222 z m 18.49627,-5.46281 c 2.31254,-0.74464 5.07405,-3.54536 6.02451,-6.11005 1.43412,-3.8698 0.28054,-8.47021 -2.80502,-11.18622 -4.07388,-3.58598 -10.35046,-3.46652 -14.07208,0.26782 -2.23715,2.24479 -3.0496,4.18744 -3.07167,7.34464 -0.0211,3.02265 0.63566,4.79511 2.57029,6.93653 2.97797,3.29625 6.78691,4.21789 11.35397,2.74728 z"
             id="path826"
             inkscape:connector-curvature="0" />
          <path
             style="display:inline;fill:#27902a;stroke-width:0.32488725"
             d="m -307.04826,373.08209 c -0.62541,-0.0729 -2.5991,-0.28935 -4.38598,-0.48108 -20.23591,-2.17132 -40.05375,-10.34787 -56.20404,-23.18896 -12.77325,-10.15602 -22.78407,-22.59915 -30.06484,-37.36966 -5.60836,-11.37769 -8.79131,-21.75529 -10.61461,-34.60763 -0.82355,-5.80516 -0.82355,-22.46003 0,-28.26519 1.8233,-12.85234 5.00625,-23.22995 10.61461,-34.60763 5.91698,-12.00378 14.17106,-23.16661 23.4032,-31.6505 17.92648,-16.47356 38.36839,-25.876 63.02812,-28.99034 5.28424,-0.66736 20.19842,-0.57156 25.66609,0.16486 30.85547,4.15583 56.99389,19.48885 75.24045,44.13667 21.05278,28.43853 26.9376,66.20596 15.59532,100.08714 -13.39432,40.0109 -47.96905,68.34521 -90.51088,74.17449 -3.54748,0.48609 -19.06786,0.91235 -21.76744,0.59783 z m -0.67933,-6.59397 c 3.83075,-1.19227 7.1311,-4.01314 8.88427,-7.59358 2.42634,-4.95524 1.89662,-11.09236 -1.32515,-15.3525 -2.88629,-3.81655 -6.4673,-5.70782 -11.23615,-5.93423 -6.42798,-0.30518 -11.565,2.68269 -14.22138,8.27166 -4.71138,9.91264 2.32933,21.16838 13.26938,21.21329 1.71748,0.007 3.34796,-0.20593 4.62903,-0.60464 z m 28.72925,-11.56765 c 10.61742,-2.76548 12.80902,-16.96102 3.52821,-22.85312 -6.73878,-4.27824 -15.75342,-1.19146 -18.58635,6.36431 -0.99903,2.66454 -0.83261,6.96303 0.36795,9.50363 2.66194,5.63318 8.75592,8.53086 14.69019,6.98518 z m -53.71601,-6.40508 c 5.38145,-1.65235 8.23418,-8.09439 5.91056,-13.3473 -3.47417,-7.85394 -14.57584,-7.84145 -18.17513,0.0204 -0.7076,1.5456 -0.79072,2.0985 -0.66357,4.41408 0.16685,3.03877 0.81085,4.56369 2.74358,6.49641 2.78635,2.78636 6.27999,3.61525 10.18456,2.41637 z m -21.31457,-2.8056 c 1.94509,-0.86041 3.67478,-2.48908 4.67868,-4.40544 0.72847,-1.39059 0.86629,-2.06719 0.86629,-4.25278 0,-2.18559 -0.13782,-2.8622 -0.86629,-4.25278 -2.43074,-4.64008 -8.04963,-6.51623 -12.70058,-4.24072 -5.08634,2.48851 -6.87572,8.94935 -3.77507,13.63048 2.60609,3.93447 7.53611,5.40602 11.79697,3.52124 z m 55.44572,-9.48007 c 1.60014,-0.85637 1.60644,-0.93779 1.60644,-20.76702 0,-14.7764 0.0838,-18.53471 0.41301,-18.53471 0.22716,0 4.35729,3.21231 9.17807,7.13845 5.7777,4.7055 9.11147,7.20671 9.78147,7.33872 3.10518,0.61181 5.30572,-3.32406 3.12589,-5.59096 -0.49139,-0.51101 -5.75456,-4.86178 -11.69594,-9.66836 l -10.8025,-8.73925 v -15.52558 c 0,-8.53906 0.12576,-15.6033 0.27946,-15.69829 0.1537,-0.095 10.62694,4.88304 23.27386,11.06229 20.22552,9.88215 23.12946,11.21309 24.11607,11.05299 1.40107,-0.22736 2.01429,-0.72732 2.59444,-2.11522 0.55316,-1.32338 0.30666,-2.66155 -0.65416,-3.55119 -0.39278,-0.36368 -11.37711,-5.86537 -24.40962,-12.22598 -13.03251,-6.3606 -24.034,-11.78655 -24.44776,-12.05765 l -0.75229,-0.49292 V 228.65357 209.4521 l 0.89344,0.18123 c 0.86516,0.17549 44.82404,16.91565 45.06164,17.1601 0.0649,0.0667 2.15198,3.99564 4.638,8.73087 4.02873,7.67368 4.64446,8.67155 5.66454,9.18024 1.44976,0.72295 2.88611,0.46748 4.183,-0.744 1.48988,-1.39176 1.30658,-2.33118 -1.52755,-7.82884 -1.36983,-2.65722 -2.39549,-4.92643 -2.27923,-5.04268 0.11626,-0.11626 4.09664,1.27272 8.84529,3.08661 4.74866,1.8139 8.88105,3.29745 9.18309,3.29678 0.30204,-6.5e-4 1.01636,-0.28607 1.58736,-0.63423 2.27256,-1.38567 2.11136,-4.83331 -0.27758,-5.93658 -0.59702,-0.27572 -7.88376,-3.09328 -16.19275,-6.26124 -8.30899,-3.16796 -15.6555,-5.97831 -16.32558,-6.24522 -0.67008,-0.26692 -1.21833,-0.70247 -1.21833,-0.96789 0,-0.26542 1.31579,-3.00569 2.92399,-6.08949 1.60819,-3.0838 2.92398,-5.92821 2.92398,-6.32091 0,-1.1963 -0.88569,-2.51479 -2.06533,-3.07457 -2.83977,-1.34755 -3.67809,-0.59165 -7.51147,6.77298 -1.73481,3.33291 -3.32337,6.12055 -3.53012,6.19476 -0.20674,0.0742 -8.12446,-2.83284 -17.59492,-6.46011 l -17.21903,-6.59504 -0.16244,-22.88275 c -0.12555,-17.68603 -0.25636,-23.04707 -0.576,-23.6063 -0.57836,-1.0119 -1.42141,-1.38822 -3.10996,-1.38822 -1.2253,0 -1.587,0.1575 -2.29557,0.99959 l -0.8411,0.99959 v 30.98263 c 0,24.27258 -0.0871,31.03956 -0.40232,31.24547 -0.8765,0.57261 -26.74132,10.40774 -27.04782,10.28496 -0.18025,-0.0722 -1.80065,-2.94152 -3.60091,-6.37625 -2.88857,-5.51115 -3.41125,-6.31385 -4.44814,-6.83117 -2.29901,-1.14702 -5.11171,0.47017 -5.11171,2.939 0,0.79975 0.90329,2.83393 3.10356,6.98911 1.78217,3.36561 2.98207,5.98253 2.81823,6.14638 -0.15693,0.15693 -9.16941,3.69757 -20.02773,7.86808 -13.40975,5.15049 -19.98526,7.83129 -20.49951,8.35756 -1.19991,1.22796 -1.19438,3.02643 0.0137,4.46219 1.49725,1.77938 1.81664,1.72076 12.02207,-2.20676 5.13405,-1.97582 9.38853,-3.5924 9.4544,-3.5924 0.43388,0 -0.14771,1.51767 -1.99202,5.1982 -1.16147,2.31784 -2.11177,4.59646 -2.11177,5.0636 0,0.53274 0.41177,1.26111 1.10462,1.95396 0.88703,0.88703 1.35991,1.10462 2.40066,1.10462 0.77167,0 1.59301,-0.24046 2.03,-0.59432 0.40367,-0.32687 2.57631,-4.23625 4.82808,-8.6875 l 4.09413,-8.09319 21.38735,-8.20972 c 11.76305,-4.51534 21.52185,-8.12661 21.68623,-8.02502 0.35613,0.22011 0.40539,39.76324 0.0502,40.31761 -0.13128,0.2049 -11.42293,5.85659 -25.09256,12.55931 -13.66963,6.70271 -25.27488,12.56631 -25.78944,13.03022 -0.83679,0.75441 -0.91793,0.99981 -0.76862,2.3245 0.20062,1.7799 1.19955,2.97139 2.73224,3.25893 0.96092,0.18027 3.81563,-1.13602 24.68652,-11.38279 12.97997,-6.37264 23.79942,-11.51008 24.04321,-11.41653 0.36791,0.14118 0.42894,2.97443 0.35905,16.66718 l -0.0842,16.49708 -11.75184,5.85592 c -6.46352,3.22076 -12.05278,6.12826 -12.42059,6.46112 -2.02626,1.83374 -0.39507,5.7142 2.40203,5.7142 0.6209,0 4.66069,-1.81557 10.84352,-4.87331 5.41967,-2.68032 10.13191,-4.87331 10.47163,-4.87331 0.59258,0 0.61769,0.37736 0.61769,9.28428 v 9.28428 l 0.94967,0.94967 c 0.74398,0.74398 1.24118,0.94967 2.29557,0.94967 0.74024,0 1.62717,-0.15054 1.97095,-0.33452 z m 30.37224,-8.55663 c 2.88809,-1.34487 4.46648,-3.87829 4.48413,-7.19732 0.0182,-3.41768 -2.1994,-6.41709 -5.60177,-7.57677 -3.92224,-1.33687 -8.73923,1.19849 -9.93643,5.22992 -0.61685,2.07716 -0.61533,2.63476 0.013,4.75045 1.37221,4.62073 6.56809,6.87663 11.04111,4.79372 z m -84.21742,-2.31592 c 2.56235,-0.6674 4.25843,-1.5885 6.10425,-3.31505 7.52739,-7.04099 4.32515,-19.64536 -5.67907,-22.35337 -4.45483,-1.20587 -8.95254,-0.0778 -12.34582,3.09644 -3.47088,3.24684 -4.91621,7.3357 -4.15733,11.76114 1.31614,7.67511 8.79919,12.70673 16.07797,10.81084 z m 97.90137,-2.97196 c 3.46105,-1.64238 3.67102,-6.86921 0.35711,-8.88972 -1.53792,-0.93768 -3.98794,-0.8732 -5.48542,0.14436 -2.21135,1.50264 -2.90482,4.61328 -1.49489,6.70547 1.61946,2.40311 4.18961,3.1947 6.6232,2.03989 z m -77.04745,-1.69658 c 3.33959,-1.51715 4.90851,-5.4509 3.45239,-8.65617 -2.31669,-5.09959 -9.36537,-5.38459 -11.98384,-0.48454 -0.63939,1.19653 -0.75955,1.82382 -0.66173,3.45466 0.15874,2.6466 1.22583,4.2832 3.54684,5.43981 2.01715,1.00518 3.80417,1.08312 5.64634,0.24624 z m 48.78327,-1.70104 c 4.08994,-2.52773 2.45844,-8.88178 -2.38421,-9.28551 -5.21615,-0.43487 -7.43023,6.28072 -3.04501,9.23592 1.44578,0.97431 3.89676,0.99669 5.42922,0.0496 z m 21.08768,-7.07996 c 4.24364,-1.92742 5.18268,-7.79123 1.74505,-10.89692 -1.63243,-1.4748 -2.4894,-1.80851 -4.64433,-1.80851 -2.26247,0 -4.3026,1.05215 -5.56643,2.87075 -0.87151,1.25408 -0.979,1.67015 -0.979,3.78944 0,2.1211 0.10627,2.53157 0.97466,3.7645 1.88399,2.67486 5.47395,3.64154 8.47005,2.28074 z m -110.27992,-3.13108 c 2.0704,-1.45827 2.95911,-3.37348 2.81564,-6.06781 -0.14196,-2.66584 -1.27508,-4.50702 -3.50769,-5.69956 -1.22068,-0.65202 -1.82166,-0.76177 -3.64098,-0.66489 -2.66584,0.14195 -4.50702,1.27507 -5.69957,3.50769 -0.65201,1.22067 -0.76176,1.82165 -0.66488,3.64098 0.14195,2.66584 1.27507,4.50702 3.50768,5.69956 1.22068,0.65202 1.82166,0.76177 3.64098,0.66489 1.78102,-0.0948 2.42917,-0.29225 3.54882,-1.08086 z m 52.10212,-1.53581 c 1.9436,-0.99891 3.72797,-2.79276 4.76433,-4.78966 0.6326,-1.21892 0.75772,-1.94815 0.75252,-4.38598 -0.005,-2.52682 -0.12331,-3.14743 -0.8682,-4.56904 -1.03097,-1.96759 -3.0388,-3.85925 -5.09621,-4.80136 -2.25584,-1.03297 -5.79718,-0.96717 -8.19005,0.15217 -4.5632,2.13459 -6.90079,6.90112 -5.69419,11.61093 0.90415,3.52927 3.19677,6.08342 6.532,7.27715 2.3074,0.82585 5.6425,0.61454 7.7998,-0.49421 z m 47.49711,-7.04958 c 2.17803,-1.32803 2.87164,-3.65257 1.76932,-5.92966 -0.82498,-1.70419 -2.2876,-2.64 -4.12617,-2.64 -3.56971,0 -5.8578,3.87745 -4.04378,6.85268 1.35464,2.22179 4.28397,3.00759 6.40063,1.71698 z m -89.3159,-1.16864 c 4.73785,-1.97911 5.75373,-8.22012 1.86041,-11.42932 -3.75608,-3.09608 -9.34555,-1.37853 -10.7345,3.29855 -1.58824,5.34819 3.77394,10.26123 8.87409,8.13077 z m -12.96139,-4.67491 c 3.0725,-1.56747 3.67153,-5.54569 1.20628,-8.01094 -2.46525,-2.46526 -6.44347,-1.86622 -8.01094,1.20628 -2.25895,4.4279 2.37676,9.06361 6.80466,6.80466 z m 117.28345,-2.59867 c 2.65929,-1.35667 4.20628,-4.233 3.78556,-7.03854 -0.24791,-1.65319 -1.19322,-3.12254 -2.88475,-4.48394 -1.15408,-0.92884 -1.43839,-1.00482 -3.75993,-1.00482 -2.18064,0 -2.68494,0.11481 -3.82856,0.87162 -1.61185,1.06667 -3.02464,3.69547 -3.01428,5.60869 0.0136,2.49869 1.78307,5.21379 4.05396,6.22023 1.46296,0.64837 4.20221,0.56435 5.648,-0.17324 z m -17.07436,-3.91256 c 3.25547,-1.6516 5.15393,-4.80062 5.19358,-8.61474 0.0902,-8.68002 -10.32905,-13.03116 -16.57167,-6.92042 -4.00163,3.9171 -3.80327,10.47388 0.42959,14.19979 2.02436,1.78192 3.62001,2.3016 6.78027,2.20823 2.00909,-0.0594 2.9553,-0.2575 4.16823,-0.87286 z m -93.88542,-2.95538 c 1.94582,-0.5403 3.95912,-2.75938 4.43573,-4.8891 1.1747,-5.24914 -4.06472,-9.64911 -9.02306,-7.57739 -2.57894,1.07755 -3.97387,3.26908 -3.97387,6.24325 0,2.64858 1.27891,4.66761 3.65828,5.77537 1.86944,0.87036 3.0071,0.97428 4.90292,0.44787 z m 159.19672,-3.09473 c 2.28391,-0.77821 4.88695,-3.30877 5.74698,-5.58696 1.34634,-3.56643 0.49731,-7.6522 -2.1377,-10.28722 -1.7924,-1.79239 -3.54101,-2.53441 -6.37094,-2.70348 -2.14826,-0.12835 -2.7216,-0.0392 -4.25163,0.6613 -3.49236,1.59885 -5.4568,4.42913 -5.69438,8.20421 -0.19282,3.06387 0.65,5.31047 2.7789,7.40735 2.65849,2.61851 6.43514,3.4952 9.92877,2.3048 z m -20.65059,-0.738 c 2.20906,-1.13613 3.79628,-2.78499 4.77042,-4.95566 0.79199,-1.7648 0.88048,-2.29124 0.75357,-4.48348 -0.11272,-1.94722 -0.34706,-2.85736 -1.08459,-4.21245 -3.89058,-7.14827 -14.11764,-6.8297 -17.7541,0.55304 -1.08941,2.21172 -1.06832,6.07926 0.0455,8.34279 1.05863,2.15137 3.221,4.19943 5.3053,5.02483 2.26324,0.89627 5.93958,0.77206 7.9639,-0.26907 z m -120.55513,-2.49832 c 2.84593,-1.39239 4.56839,-4.23742 4.60909,-7.61294 0.0767,-6.3643 -6.79935,-10.54141 -12.52899,-7.61117 -3.1483,1.6101 -4.66434,4.19572 -4.6532,7.93606 0.0112,3.76723 2.45016,6.83514 6.4888,8.16218 1.38044,0.4536 4.19785,0.0488 6.0843,-0.87413 z m -17.2207,-10.06547 c 6.31831,-3.14855 5.48427,-12.38079 -1.32273,-14.64172 -5.01018,-1.66411 -10.25344,2.21468 -10.27584,7.60174 -0.0247,5.94729 6.20424,9.72809 11.59857,7.03998 z m -18.26589,-4.15985 c 1.81974,-0.8492 3.86523,-2.92982 4.63374,-4.71333 0.8175,-1.89719 0.65985,-5.08348 -0.35006,-7.0752 -2.67841,-5.28229 -9.23969,-6.57977 -13.6485,-2.69898 -3.76304,3.31236 -3.99427,9.10387 -0.50391,12.62085 2.58174,2.60143 6.64661,3.3703 9.86873,1.86666 z m 167.89259,-2.27153 c 4.70188,-2.30041 7.40321,-7.55441 6.40415,-12.45583 -0.77523,-3.80327 -3.18306,-6.82736 -6.76047,-8.49073 -1.53694,-0.71463 -2.30338,-0.8573 -4.60533,-0.8573 -2.30914,0 -3.06682,0.14192 -4.62503,0.86632 -2.2654,1.05316 -4.70933,3.42685 -5.78358,5.61735 -1.13983,2.32423 -1.29014,6.42157 -0.32951,8.98219 0.70729,1.88532 2.57408,4.28879 4.26798,5.49496 3.01494,2.14682 8.01351,2.51544 11.43179,0.84304 z m -110.71244,-0.29563 c 1.92444,-0.98796 3.38113,-2.45696 4.42827,-4.46572 0.62536,-1.19964 0.76201,-1.95754 0.76147,-4.22353 -6.5e-4,-2.35993 -0.12572,-2.99779 -0.86054,-4.38598 -1.02504,-1.93647 -2.49879,-3.38942 -4.49165,-4.42828 -1.19964,-0.62536 -1.95754,-0.762 -4.22353,-0.76146 -2.36723,6.5e-4 -2.99921,0.12538 -4.42605,0.87416 -4.37365,2.29521 -6.38481,7.40563 -4.77609,12.13622 0.7414,2.18015 3.58212,5.00443 5.79082,5.75731 2.33854,0.79713 5.68567,0.58133 7.7973,-0.50272 z m 86.86772,-0.0981 c 3.93994,-1.17004 6.4139,-5.25431 5.54829,-9.15973 -1.00933,-4.55387 -5.57041,-7.36271 -9.90813,-6.10169 -3.54305,1.02999 -5.81046,4.01326 -5.81046,7.64491 0,3.84248 2.41127,6.90848 6.14882,7.81839 1.53225,0.37302 2.19814,0.33959 4.02148,-0.20188 z m 42.68275,-7.47927 c 1.82649,-1.26899 2.84273,-3.29305 2.83574,-5.64794 -0.0178,-6.00288 -7.42341,-8.7366 -11.48588,-4.23993 -2.33064,2.57973 -2.37461,6.09252 -0.10856,8.6734 2.27137,2.58696 6.03262,3.10848 8.7587,1.21447 z m -114.48759,-5.09296 c 3.67241,-1.71238 4.66798,-7.05607 1.90159,-10.20681 -3.29968,-3.75812 -9.20081,-2.88193 -11.31278,1.67971 -1.7287,3.73382 0.77035,8.51464 4.84188,9.26281 1.55496,0.28574 2.81318,0.0832 4.56931,-0.73571 z m 63.35541,-3.04395 c 2.32418,-1.15819 3.38545,-2.78971 3.5559,-5.46658 0.0997,-1.56586 -0.018,-2.30532 -0.52395,-3.29222 -1.23464,-2.40818 -3.37383,-3.70943 -6.09809,-3.70943 -1.90759,0 -3.39625,0.70607 -4.82651,2.2892 -2.37537,2.62925 -2.2684,6.36834 0.25437,8.89111 2.24857,2.24857 4.83526,2.68472 7.63828,1.28792 z m -126.86318,-2.38882 c 5.94976,-0.97436 10.49318,-5.43846 11.56788,-11.36593 1.1983,-6.60919 -2.98444,-13.35046 -9.51413,-15.33379 -3.43145,-1.04227 -6.90319,-0.76773 -10.06743,0.79613 -2.9475,1.45673 -5.0796,3.63643 -6.50946,6.65478 -0.96202,2.03077 -1.03403,2.42413 -1.02445,5.59564 0.0133,4.41015 0.73303,6.3555 3.40999,9.21718 2.20898,2.36141 4.38238,3.64384 7.22014,4.26029 2.54411,0.55267 2.60273,0.55477 4.91746,0.1757 z m 111.92867,-3.10846 c 5.73376,-3.1207 6.80014,-10.9021 2.13355,-15.56869 -5.97962,-5.97962 -16.56292,-1.52695 -16.55818,6.96647 0.002,4.25509 2.49499,7.78919 6.56241,9.30436 2.05379,0.76506 5.77749,0.43252 7.86222,-0.70214 z m 57.4615,0.64839 c 4.16495,-1.74023 5.50193,-7.17266 2.62442,-10.66358 -3.22302,-3.91008 -9.24115,-3.28301 -11.47284,1.19544 -1.78766,3.58736 -0.44689,7.49278 3.23811,9.43204 1.25576,0.66086 4.0717,0.67897 5.61031,0.0361 z m -143.03761,-7.27068 c 1.63626,-0.73433 3.44533,-2.4982 4.23419,-4.12841 0.33428,-0.6908 0.66643,-2.2173 0.73812,-3.39222 0.16596,-2.71985 -0.72451,-4.9443 -2.71297,-6.77721 -1.83926,-1.69536 -3.44743,-2.35101 -5.8331,-2.37816 -7.64095,-0.0869 -11.69338,8.74535 -6.64433,14.48137 2.6049,2.95933 6.60147,3.8177 10.21809,2.19463 z m 136.53492,-8.17683 c 7.04159,-3.41593 6.9392,-13.59516 -0.17187,-17.08713 -2.57166,-1.26284 -5.96336,-1.27422 -8.35749,-0.028 -8.07471,4.20301 -6.9574,15.57211 1.77082,18.0188 2.03935,0.57167 4.35581,0.26195 6.75854,-0.90363 z m -109.22224,-3.47068 c 1.58308,-0.80839 3.58362,-2.94362 4.28669,-4.57529 0.67213,-1.55987 0.64656,-5.05043 -0.0486,-6.63154 -0.72957,-1.65942 -2.63254,-3.70652 -4.2381,-4.55909 -1.87909,-0.99782 -5.96252,-0.99782 -7.84161,0 -1.60556,0.85257 -3.50853,2.89967 -4.2381,4.55909 -0.69514,1.58111 -0.72072,5.07167 -0.0486,6.63154 0.98061,2.27581 3.3345,4.39503 5.76873,5.19364 1.39389,0.4573 4.92558,0.11391 6.35956,-0.61835 z m 88.68666,-1.94547 c 1.96567,-1.00377 3.91623,-3.29597 4.51207,-5.30237 0.63144,-2.12629 0.63706,-2.99673 0.0325,-5.03246 -0.7444,-2.50667 -2.17765,-4.18763 -4.57811,-5.36937 -1.88404,-0.92751 -2.30529,-1.01316 -4.28417,-0.87112 -4.92325,0.3534 -8.1856,3.81767 -8.19477,8.70197 -0.007,3.71686 2.23961,7.01078 5.63797,8.26636 1.81503,0.67058 5.16693,0.47896 6.87449,-0.39301 z m -127.69528,-1.66113 c 2.65173,-1.21643 4.06109,-3.36135 4.06109,-6.18064 0,-2.02573 -0.32855,-2.89198 -1.68111,-4.43247 -4.17414,-4.75408 -11.76631,-1.91443 -11.76631,4.40089 0,4.91293 5.00199,8.22344 9.38633,6.21222 z m 18.49627,-5.46281 c 2.31254,-0.74464 5.07405,-3.54536 6.02451,-6.11005 1.43412,-3.8698 0.28054,-8.47021 -2.80502,-11.18622 -4.07388,-3.58598 -10.35046,-3.46652 -14.07208,0.26782 -2.23715,2.24479 -3.0496,4.18744 -3.07167,7.34464 -0.0211,3.02265 0.63566,4.79511 2.57029,6.93653 2.97797,3.29625 6.78691,4.21789 11.35397,2.74728 z"
             id="path824"
             inkscape:connector-curvature="0" />
        </g>
      </a>
    </g>
    <text
       xml:space="preserve"
       style="font-style:normal;font-variant:normal;font-weight:normal;font-stretch:normal;font-size:23.85492516px;line-height:0;font-family:'Amatic SC';-inkscape-font-specification:'Amatic SC';font-variant-ligatures:normal;font-variant-caps:normal;font-variant-numeric:normal;font-feature-settings:normal;text-align:start;letter-spacing:6.26191807px;word-spacing:0px;writing-mode:lr-tb;text-anchor:start;fill:#000000;fill-opacity:1;stroke:none;stroke-width:0.44727984"
       x="144.15202"
       y="230.98402"
       id="text4557"><tspan
         sodipodi:role="line"
         id="tspan4555"
         x="144.15202"
         y="230.98402"
         style="font-style:normal;font-variant:normal;font-weight:bold;font-stretch:normal;font-size:85.87773132px;line-height:0;font-family:'Amatic SC';-inkscape-font-specification:'Amatic SC Bold';font-variant-ligatures:normal;font-variant-caps:normal;font-variant-numeric:normal;font-feature-settings:normal;text-align:start;letter-spacing:2.81339025px;writing-mode:lr-tb;text-anchor:start;stroke-width:0.44727984">Somos Natureza</tspan></text>
    <flowRoot
       xml:space="preserve"
       id="flowRoot4559"
       style="font-style:normal;font-variant:normal;font-weight:normal;font-stretch:normal;font-size:53.33333206px;line-height:1.25;font-family:'Amatic SC';-inkscape-font-specification:'Amatic SC';font-variant-ligatures:normal;font-variant-caps:normal;font-variant-numeric:normal;font-feature-settings:normal;text-align:start;letter-spacing:14px;word-spacing:0px;writing-mode:lr-tb;text-anchor:start;fill:#000000;fill-opacity:1;stroke:none"
       transform="matrix(0.26458333,0,0,0.26458333,0,72)"><flowRegion
         id="flowRegion4561"><rect
           id="rect4563"
           width="72.310356"
           height="162.1505"
           x="1181.0692"
           y="37.449966" /></flowRegion><flowPara
         id="flowPara4565"></flowPara></flowRoot>    <text
       xml:space="preserve"
       style="font-style:normal;font-variant:normal;font-weight:bold;font-stretch:normal;font-size:40.98542404px;line-height:0;font-family:'Amatic SC';-inkscape-font-specification:'Amatic SC, Bold';font-variant-ligatures:normal;font-variant-caps:normal;font-variant-numeric:normal;font-feature-settings:normal;text-align:start;letter-spacing:-0.77488071px;word-spacing:0px;writing-mode:lr-tb;text-anchor:start;fill:#000000;fill-opacity:1;stroke:none;stroke-width:0.36086524"
       x="146.69455"
       y="276.54843"
       id="text4557-9"><tspan
         sodipodi:role="line"
         id="tspan4587"
         x="146.69455"
         y="276.54843"
         style="stroke-width:0.36086524">Movimento pelos direitos da natureza</tspan></text>
  </g>
</svg>
